<svg width="1264" height="1280" xmlns="http://www.w3.org/2000/svg" preserveAspectRatio="xMidYMid meet">
 <g>
  <g id="svg_1" fill="#DDE" transform="translate(0,1280) scale(0.10000000149011612,-0.10000000149011612) ">
   <path transform="rotate(86 2035.9233398437505,6531.62939453125) " id="svg_2" d="m5707.446228,12921c-329,-41 -584,-212 -684,-458c-109,-268 -61,-631 132,-1013c125,-247 352,-567 429,-603c92,-44 203,27 203,128c0,49 -8,62 -96,172c-216,270 -373,577 -420,822c-8,41 -14,121 -14,178c0,262 121,410 385,471c119,28 394,26 570,-5c262,-45 627,-152 833,-245c403,-181 683,-446 858,-810c112,-235 164,-464 164,-731c0,-519 -219,-978 -542,-1139c-89,-45 -163,-60 -268,-53c-128,8 -271,64 -770,299c-449,212 -656,306 -825,373c-414,163 -704,227 -1040,226c-349,0 -644,-73 -976,-242c-364,-185 -566,-396 -682,-709c-101,-272 -114,-630 -37,-1020c118,-603 467,-1397 999,-2274c39,-65 73,-122 74,-126c1,-5 -70,-62 -158,-128c-320,-240 -584,-470 -813,-708l-137,-142l-775,-524c-2819,-1907 -4917,-3375 -5925,-4146c-220,-169 -476,-374 -472,-378c5,-5 308,158 546,293c1173,666 3347,2019 6230,3877c646,417 701,450 800,485c282,100 750,324 1055,505l159,94l85,-117c499,-685 936,-1054 1702,-1436c243,-121 341,-165 369,-165c33,0 83,25 110,54c19,20 26,40 29,84c6,90 -10,104 -275,232c-809,393 -1207,716 -1676,1362c-50,70 -92,132 -92,137c0,5 63,53 140,107c484,336 892,706 1061,961c122,184 137,325 41,383c-83,51 -228,47 -435,-11c-299,-84 -763,-309 -1192,-579c-72,-45 -133,-81 -134,-79c-2,2 -52,85 -111,184c-527,880 -830,1590 -936,2190c-20,111 -23,163 -23,355c0,210 2,231 26,321c54,198 106,295 223,415c180,184 541,364 875,436c90,19 134,22 315,22c226,0 291,-8 515,-64c253,-64 486,-158 1060,-427c477,-225 758,-347 855,-374c225,-61 482,-29 677,86c257,151 464,449 563,811c54,198 69,313 69,534c0,202 -8,280 -50,461c-128,566 -497,1033 -1034,1308c-263,136 -704,271 -1057,326c-122,19 -403,27 -503,14zm27,-6165c19,-49 -147,-235 -382,-430c-247,-204 -743,-560 -759,-544c-4,4 -54,79 -111,167l-103,158l21,17c43,33 375,237 527,323c182,103 441,232 555,276c136,53 239,66 252,33zm-1581,-831c6,-10 54,-84 107,-165l96,-146l-167,-100c-414,-246 -740,-404 -899,-433c-57,-11 -93,0 -93,27c0,74 218,296 529,538c156,121 395,295 406,296c6,0 15,-8 21,-17z"/>
   <path transform="rotate(29 7272.5229492187555,8608.742187499998) " id="svg_5" d="m10944.046265,14998.112353c-329,-41 -584,-212 -684,-458c-109,-268 -61,-631 132,-1013c125,-247 352,-567 429,-603c92,-44 203,27 203,128c0,49 -8,62 -96,172c-216,270 -373,577 -420,822c-8,41 -14,121 -14,178c0,262 121,410 385,471c119,28 394,26 570,-5c262,-45 627,-152 833,-245c403,-181 683,-446 858,-810c112,-235 164,-464 164,-731c0,-519 -219,-978 -542,-1139c-89,-45 -163,-60 -268,-53c-128,8 -271,64 -770,299c-449,212 -656,306 -825,373c-414,163 -704,227 -1040,226c-349,0 -644,-73 -976,-242c-364,-185 -566,-396 -682,-709c-101,-272 -114,-630 -37,-1020c118,-603 467,-1397 999,-2274c39,-65 73,-122 74,-126c1,-5 -70,-62 -158,-128c-320,-240 -584,-470 -813,-708l-137,-142l-775,-524c-2819,-1907 -4917,-3375 -5925,-4146c-220,-169 -476,-374 -472,-378c5,-5 308,158 546,293c1173,666 3347,2019 6230,3877c646,417 701,450 800,485c282,100 750,324 1055,505l159,94l85,-117c499,-685 936,-1054 1702,-1436c243,-121 341,-165 369,-165c33,0 83,25 110,54c19,20 26,40 29,84c6,90 -10,104 -275,232c-809,393 -1207,716 -1676,1362c-50,70 -92,132 -92,137c0,5 63,53 140,107c484,336 892,706 1061,961c122,184 137,325 41,383c-83,51 -228,47 -435,-11c-299,-84 -763,-309 -1192,-579c-72,-45 -133,-81 -134,-79c-2,2 -52,85 -111,184c-527,880 -830,1590 -936,2190c-20,111 -23,163 -23,355c0,210 2,231 26,321c54,198 106,295 223,415c180,184 541,364 875,436c90,19 134,22 315,22c226,0 291,-8 515,-64c253,-64 486,-158 1060,-427c477,-225 758,-347 855,-374c225,-61 482,-29 677,86c257,151 464,449 563,811c54,198 69,313 69,534c0,202 -8,280 -50,461c-128,566 -497,1033 -1034,1308c-263,136 -704,271 -1057,326c-122,19 -403,27 -503,14zm27,-6165c19,-49 -147,-235 -382,-430c-247,-204 -743,-560 -759,-544c-4,4 -54,79 -111,167l-103,158l21,17c43,33 375,237 527,323c182,103 441,232 555,276c136,53 239,66 252,33zm-1581,-831c6,-10 54,-84 107,-165l96,-146l-167,-100c-414,-246 -740,-404 -899,-433c-57,-11 -93,0 -93,27c0,74 218,296 529,538c156,121 395,295 406,296c6,0 15,-8 21,-17z"/>
  </g>
 </g>
</svg>